# xmcd
#
# Track frame offsets:
# 150
# 13697
# 28495
# 42187
# 61747
# 79665
# 90045
# 102622
# 110382
# 123665
# 133407
#
# Disc length: 1820 seconds
#
#
# Revision: 0
# Processed by: cddbd v1.5PL3 Copyright (c) Steve Scherf et al.
# Submitted via: FreeRIP 2.53 
#
DISCID=8f071a0b
DTITLE=The Jesus Chords - The Jesus Chords
DYEAR=1900
DGENRE=Country
TTITLE0=Moody River
TTITLE1=Redneck Song
TTITLE2=There Was a Man Who Knew Me
TTITLE3=Outlaw
TTITLE4=The Mill
TTITLE5=Passin' Out Candy
TTITLE6=June Carter
TTITLE7=Limerick Song
TTITLE8=Mud On My Face
TTITLE9=Titanium Girl
TTITLE10=A Simple Thing
EXTD=
EXTT0=
EXTT1=
EXTT2=
EXTT3=
EXTT4=
EXTT5=
EXTT6=
EXTT7=
EXTT8=
EXTT9=
EXTT10=
PLAYORDER=
